<svg width="37" height="39" viewBox="0 0 37 39" fill="none" xmlns="http://www.w3.org/2000/svg">
<path d="M27.2477 4.39713C28.1304 4.38825 29.9568 4.8174 31.0776 6.54852C31.7015 7.51215 31.7466 8.51185 31.5613 9.32559C34.8652 10.2711 37.0751 13.7754 35.801 17.6705C35.621 18.2206 35.3881 18.7151 35.1122 19.1582C35.5805 20.8547 35.8177 23.6733 34.249 26.4238C32.7029 29.1347 30.4119 30.4574 28.3831 30.9034C28.0775 31.6803 27.5736 32.5762 26.8262 33.3662C25.885 34.3609 24.5449 35.1985 22.7704 35.3895C22.3176 35.9705 21.6807 36.6444 20.9109 37.2136C19.9018 37.9599 18.5111 38.6378 16.9286 38.4758C15.2104 38.2997 13.2482 37.4196 11.8626 35.8813C10.4324 34.2934 9.64681 32.0309 10.3367 29.2723L10.3793 29.1007L23.3792 6.73274L25.5731 7.9878L12.7595 30.0352C12.3475 31.8722 12.878 33.2384 13.7503 34.207C14.6922 35.2527 16.0619 35.8615 17.1888 35.977C17.882 36.0479 18.6429 35.7578 19.3981 35.1994C20.1189 34.6663 20.6927 33.9874 20.9967 33.5353C21.1607 33.2242 21.3895 32.6601 21.4972 32.0238C21.6109 31.3522 21.5698 30.7398 21.3407 30.2733L23.6173 29.1717C24.1606 30.2773 24.1543 31.4696 23.996 32.42C24.3757 32.207 24.7016 31.9407 24.9802 31.6462C25.6422 30.9465 26.0196 30.1096 26.1662 29.5683C26.2195 29.0223 26.1972 28.1526 25.9507 27.3219C25.6931 26.4541 25.2436 25.7802 24.5543 25.4275L25.715 23.1947C27.236 23.9729 28.0085 25.3614 28.3798 26.6122C28.5391 27.149 28.6312 27.689 28.6798 28.1944C29.8543 27.7395 31.1106 26.8245 32.0448 25.1866C32.8272 23.8146 32.9922 22.3995 32.91 21.2439C32.1494 21.6624 31.3433 21.9037 30.582 22.0273C29.1765 22.2555 27.8304 22.1074 26.9508 21.8975L27.5435 19.4552C28.162 19.6028 29.1623 19.712 30.173 19.5479C31.1735 19.3855 32.0873 18.9745 32.7235 18.1735C32.9849 17.8444 33.2183 17.4275 33.3927 16.8944C34.3568 13.9466 32.2654 11.5443 29.6964 11.5895C28.6811 11.6074 27.432 11.9912 26.0434 12.9845L24.5625 10.9467C26.0417 9.88855 27.5363 9.28848 28.9644 9.12357C29.0135 9.02074 29.0604 8.90611 29.0895 8.7827C29.1577 8.4933 29.1395 8.20489 28.9465 7.90675C28.4188 7.0916 27.5377 6.90704 27.273 6.90972L27.2477 4.39713ZM20.09 26.3993C18.9356 26.9731 16.8408 28.9052 17.6249 32.0358L15.167 32.6418C13.9881 27.9352 17.2072 25.0218 18.9554 24.1527L20.09 26.3993ZM27.9757 16.613C27.4078 16.3274 26.4298 16.1152 25.4321 16.2919C24.485 16.4597 23.5262 16.9731 22.8422 18.1547L20.6463 16.903C21.7398 15.0143 23.3781 14.1038 24.9865 13.8187C26.544 13.5427 28.0797 13.8475 29.1219 14.3718L27.9757 16.613Z" fill="#FF4DBE"/>
<path d="M25.6726 3.49601C25.2381 2.7336 23.9488 1.38029 21.8772 1.2851C20.724 1.23212 19.8294 1.69423 19.2124 2.26097C16.7325 -0.102254 12.5685 -0.244403 9.80896 2.801C9.41927 3.23109 9.10457 3.67879 8.85621 4.13774C7.14172 4.58548 4.56419 5.79377 2.95062 8.51867C1.36036 11.2042 1.35422 13.8341 1.9815 15.7996C1.45689 16.4512 0.927823 17.3326 0.613109 18.3702C0.21691 19.6766 0.157519 21.2469 0.879856 22.8664C0.599905 23.5463 0.331119 24.4307 0.220169 25.3768C0.0747174 26.6172 0.179954 28.1509 1.11406 29.4286C2.12842 30.8158 3.87916 32.0597 5.91523 32.4789C8.01691 32.9115 10.384 32.4526 12.4449 30.4783L12.5732 30.3558L25.5731 7.9878L23.3792 6.73274L10.5656 28.7802C9.16961 30.0542 7.71202 30.283 6.43005 30.0193C5.04602 29.7343 3.82881 28.8632 3.16355 27.9534C2.75441 27.3937 2.62627 26.595 2.73512 25.6668C2.83906 24.7808 3.1438 23.948 3.38588 23.4606C3.57514 23.1639 3.95262 22.6848 4.45374 22.2735C4.9826 21.8395 5.53738 21.568 6.05912 21.531L5.87965 19.0243C4.643 19.1116 3.60603 19.7144 2.85623 20.3264C2.8519 19.8936 2.92093 19.4805 3.03826 19.0937C3.31703 18.1747 3.85798 17.4314 4.25679 17.0344C4.70636 16.715 5.47619 16.2985 6.3243 16.094C7.21039 15.8805 8.02337 15.9288 8.67633 16.344L10.0427 14.2288C8.60187 13.3126 7.00363 13.345 5.72653 13.6528C5.17844 13.7849 4.66126 13.9763 4.19607 14.1877C4.00447 12.9513 4.17328 11.4142 5.13409 9.79158C5.93894 8.43238 7.0908 7.58179 8.14001 7.07354C8.15595 7.93623 8.34935 8.74932 8.62288 9.46495C9.12792 10.786 9.93144 11.8677 10.5552 12.5179L12.3888 10.7855C11.9502 10.3283 11.3538 9.52406 10.9906 8.574C10.6311 7.63359 10.5318 6.64302 10.9118 5.69551C11.068 5.3062 11.3147 4.89691 11.6924 4.48008C13.7809 2.17552 16.9242 2.76785 18.1718 4.99647C18.6647 5.87718 18.9557 7.14203 18.7848 8.83204L21.3043 9.08271C21.4864 7.28248 21.2611 5.69854 20.6895 4.38962C20.7546 4.29596 20.8312 4.19832 20.9242 4.11152C21.1425 3.90797 21.4032 3.77905 21.76 3.79544C22.7354 3.84026 23.3378 4.50429 23.4681 4.73296L25.6726 3.49601ZM10.0651 20.6642C10.1429 21.9429 9.50679 24.7096 6.38311 25.6046L7.08578 28.0186C11.7821 26.6731 12.7109 22.4495 12.5932 20.5131L10.0651 20.6642ZM14.6515 8.9905C15.1852 9.33511 15.8603 10.0685 16.2059 11.0138C16.534 11.9111 16.5664 12.9916 15.8784 14.1708L18.0703 15.4293C19.1701 13.5442 19.1436 11.6813 18.5866 10.1575C18.0471 8.68184 17.012 7.51581 16.0325 6.88361L14.6515 8.9905Z" fill="#FF4DBE"/>
</svg>
