<svg width="121" height="25" viewBox="0 0 121 25" fill="none" xmlns="http://www.w3.org/2000/svg">
<path d="M8.75204 21.1576C6.99745 21.1576 5.5353 20.9017 4.36557 20.39C3.19585 19.8599 2.31855 19.1289 1.73369 18.1967C1.14883 17.2463 0.8564 16.1314 0.8564 14.8521V14.4957H5.92825V14.715C5.92825 15.2085 6.0105 15.5923 6.17499 15.8664C6.33948 16.1223 6.63191 16.2959 7.05228 16.3873C7.49093 16.4787 8.12148 16.5244 8.94394 16.5244C9.91262 16.5244 10.5432 16.4421 10.8356 16.2777C11.1463 16.1132 11.3017 15.8299 11.3017 15.4278C11.3017 15.1353 11.256 14.9069 11.1646 14.7424C11.0915 14.5779 10.9453 14.45 10.7259 14.3586C10.5066 14.2489 10.1868 14.1667 9.76641 14.1118L5.76376 13.4813C4.52093 13.2802 3.50656 12.9421 2.72065 12.4669C1.95302 11.9734 1.38643 11.3612 1.02089 10.6301C0.673631 9.88073 0.5 9.03085 0.5 8.08045C0.5 6.98383 0.783292 5.99688 1.34988 5.11958C1.91646 4.24229 2.78462 3.54777 3.95434 3.03601C5.12406 2.50598 6.6045 2.24097 8.39564 2.24097C10.1137 2.24097 11.5301 2.50598 12.645 3.03601C13.7599 3.54777 14.5915 4.26057 15.1398 5.17441C15.6881 6.06998 15.9623 7.09349 15.9623 8.24494V8.711H10.8904V8.38202C10.8904 8.01648 10.8082 7.72405 10.6437 7.50472C10.4975 7.2854 10.2233 7.13005 9.82124 7.03866C9.41914 6.929 8.83428 6.87417 8.06665 6.87417C7.09797 6.87417 6.44914 6.95642 6.12016 7.12091C5.79117 7.2854 5.62668 7.54128 5.62668 7.88854C5.62668 8.07131 5.67237 8.22666 5.76376 8.3546C5.85514 8.48254 6.00136 8.5922 6.2024 8.68359C6.42173 8.75669 6.70502 8.8298 7.05228 8.90291L11.0549 9.61571C12.3526 9.83503 13.3944 10.2097 14.1803 10.7397C14.9845 11.2515 15.5602 11.8821 15.9075 12.6314C16.273 13.3808 16.4558 14.2306 16.4558 15.181C16.4558 16.2411 16.1907 17.2281 15.6607 18.1419C15.149 19.0557 14.3265 19.7868 13.1933 20.3351C12.0784 20.8834 10.598 21.1576 8.75204 21.1576Z" fill="white"/>
<path d="M26.4695 21.1576C24.4955 21.1576 22.8232 20.7738 21.4524 20.0061C20.0999 19.2202 19.0764 18.1236 18.3819 16.7163C17.6874 15.2907 17.3401 13.6184 17.3401 11.6993C17.3401 9.7802 17.6874 8.117 18.3819 6.70968C19.0764 5.28408 20.0999 4.18746 21.4524 3.41983C22.8232 2.63392 24.4955 2.24097 26.4695 2.24097C28.4068 2.24097 30.0152 2.55167 31.2946 3.17309C32.5739 3.79451 33.5244 4.65352 34.1458 5.75014C34.7855 6.84675 35.1053 8.10786 35.1053 9.53346V10.164H29.5948V10.0818C29.5948 9.02171 29.3755 8.29063 28.9368 7.88854C28.4982 7.46817 27.6392 7.25799 26.3598 7.25799C25.4825 7.25799 24.788 7.36765 24.2762 7.58697C23.7827 7.78802 23.4263 8.20839 23.207 8.84808C22.9877 9.46949 22.878 10.4199 22.878 11.6993C22.878 12.9604 22.9877 13.9108 23.207 14.5505C23.4263 15.1902 23.7827 15.6197 24.2762 15.839C24.788 16.0401 25.4825 16.1406 26.3598 16.1406C27.6392 16.1406 28.4982 15.9395 28.9368 15.5374C29.3755 15.1171 29.5948 14.3769 29.5948 13.3168V13.2345H35.1053V13.8651C35.1053 15.2907 34.7855 16.5518 34.1458 17.6484C33.5244 18.745 32.5739 19.6041 31.2946 20.2255C30.0152 20.8469 28.4068 21.1576 26.4695 21.1576Z" fill="white"/>
<path d="M62.3954 20.8834H57.2413V2.51512H66.4803C68.0338 2.51512 69.3132 2.73444 70.3185 3.17309C71.3237 3.59346 72.073 4.22401 72.5665 5.06475C73.06 5.90549 73.3067 6.93814 73.3067 8.16269C73.3067 9.13137 73.1697 9.97211 72.8955 10.6849C72.6214 11.3977 72.1736 11.9734 71.5522 12.4121C70.949 12.8325 70.1266 13.1066 69.0848 13.2345V13.4813C70.0169 13.7189 70.7114 14.121 71.1683 14.6876C71.6435 15.2541 72.0548 15.9304 72.402 16.7163L74.3211 20.8834H68.3171L66.5077 17.0727C66.2518 16.5427 66.0142 16.1314 65.7949 15.839C65.5939 15.5283 65.3289 15.3181 64.9999 15.2085C64.6892 15.0805 64.2414 15.0165 63.6565 15.0165H62.3954V20.8834ZM62.3954 7.14832V10.7397H66.2884C67.0195 10.7397 67.513 10.6118 67.7688 10.3559C68.0247 10.1 68.1526 9.60657 68.1526 8.87549C68.1526 8.19925 68.0247 7.74232 67.7688 7.50472C67.513 7.26712 67.0195 7.14832 66.2884 7.14832H62.3954Z" fill="white"/>
<path d="M80.0655 20.8834H74.9114V2.51512H80.0655V20.8834ZM89.7431 20.8834H76.3096V16.2502H89.7431V20.8834ZM89.3319 13.9748H76.3096V9.36897H89.3319V13.9748ZM89.7431 7.14832H76.3096V2.51512H89.7431V7.14832Z" fill="white"/>
<path d="M100.707 20.8834H95.5533V2.51512H100.707V20.8834Z" fill="white"/>
<path d="M119.54 24.749H112.769L108.273 17.0179H113.674L119.54 24.749ZM111.288 21.1576C109.351 21.1576 107.688 20.7738 106.299 20.0061C104.928 19.2202 103.877 18.1236 103.146 16.7163C102.415 15.2907 102.049 13.6184 102.049 11.6993C102.049 9.7802 102.415 8.117 103.146 6.70968C103.877 5.28408 104.928 4.18746 106.299 3.41983C107.688 2.63392 109.351 2.24097 111.288 2.24097C113.226 2.24097 114.88 2.63392 116.251 3.41983C117.621 4.18746 118.672 5.28408 119.403 6.70968C120.134 8.117 120.5 9.7802 120.5 11.6993C120.5 13.6184 120.134 15.2907 119.403 16.7163C118.672 18.1236 117.621 19.2202 116.251 20.0061C114.88 20.7738 113.226 21.1576 111.288 21.1576ZM111.288 16.1406C112.239 16.1406 112.979 16.0218 113.509 15.7842C114.039 15.5283 114.414 15.0805 114.633 14.4408C114.852 13.7829 114.962 12.869 114.962 11.6993C114.962 10.5113 114.852 9.59743 114.633 8.95774C114.414 8.31805 114.039 7.8794 113.509 7.6418C112.979 7.38592 112.239 7.25799 111.288 7.25799C110.338 7.25799 109.589 7.38592 109.04 7.6418C108.51 7.8794 108.136 8.31805 107.916 8.95774C107.697 9.59743 107.587 10.5113 107.587 11.6993C107.587 12.869 107.697 13.7829 107.916 14.4408C108.136 15.0805 108.51 15.5283 109.04 15.7842C109.589 16.0218 110.338 16.1406 111.288 16.1406Z" fill="white"/>
<path d="M52.0513 2.69082C52.6201 2.68505 53.797 2.96378 54.5193 4.08813C54.9213 4.71401 54.9503 5.36331 54.831 5.89183C56.9599 6.50592 58.384 8.78192 57.5629 11.3118C57.4469 11.6691 57.2969 11.9902 57.1191 12.2781C57.4208 13.3799 57.5737 15.2106 56.5628 16.9971C55.5666 18.7577 54.0903 19.6168 52.783 19.9065C52.586 20.4111 52.2613 20.993 51.7797 21.5061C51.1732 22.1521 50.3097 22.6961 49.1662 22.8202C48.8744 23.1976 48.464 23.6352 47.968 24.005C47.3177 24.4897 46.4216 24.93 45.4018 24.8247C44.2946 24.7104 43.0302 24.1387 42.1373 23.1396C41.2157 22.1083 40.7095 20.6388 41.1541 18.8471L41.1815 18.7357L49.5585 4.20779L50.9722 5.02294L42.7153 19.3426C42.4498 20.5357 42.7917 21.4231 43.3538 22.0522C43.9607 22.7314 44.8433 23.1268 45.5695 23.2018C46.0162 23.2478 46.5065 23.0594 46.9931 22.6967C47.4576 22.3505 47.8274 21.9096 48.0232 21.6159C48.1289 21.4139 48.2763 21.0475 48.3458 20.6342C48.419 20.198 48.3926 19.8003 48.2449 19.4973L49.7119 18.7817C50.062 19.4998 50.0579 20.2743 49.956 20.8916C50.2006 20.7532 50.4106 20.5802 50.5901 20.389C51.0167 19.9345 51.2599 19.3909 51.3544 19.0393C51.3887 18.6847 51.3744 18.1199 51.2155 17.5803C51.0495 17.0167 50.7599 16.579 50.3157 16.35L51.0637 14.8997C52.0438 15.4052 52.5415 16.307 52.7808 17.1194C52.8834 17.4681 52.9428 17.8188 52.9741 18.147C53.731 17.8516 54.5405 17.2573 55.1425 16.1935C55.6467 15.3024 55.753 14.3832 55.7 13.6327C55.2099 13.9045 54.6904 14.0612 54.1999 14.1415C53.2942 14.2897 52.4268 14.1935 51.86 14.0572L52.2419 12.471C52.6405 12.5668 53.2851 12.6377 53.9364 12.5312C54.581 12.4257 55.1699 12.1587 55.5798 11.6385C55.7483 11.4248 55.8987 11.154 56.0111 10.8077C56.6323 8.89313 55.2847 7.33286 53.6292 7.3622C52.975 7.37384 52.1701 7.62312 51.2752 8.2683L50.321 6.94472C51.2742 6.25746 52.2373 5.86772 53.1575 5.76061C53.1892 5.69383 53.2194 5.61938 53.2381 5.53923C53.2821 5.35126 53.2704 5.16394 53.146 4.9703C52.8059 4.44086 52.2382 4.32099 52.0676 4.32273L52.0513 2.69082ZM47.439 16.9811C46.6951 17.3538 45.3452 18.6087 45.8505 20.642L44.2667 21.0356C43.507 17.9786 45.5813 16.0864 46.7078 15.522L47.439 16.9811ZM52.5204 10.625C52.1544 10.4395 51.5243 10.3016 50.8813 10.4164C50.271 10.5254 49.6532 10.8589 49.2124 11.6263L47.7975 10.8133C48.5021 9.58662 49.5578 8.99523 50.5942 8.81009C51.5978 8.63084 52.5874 8.82875 53.259 9.16932L52.5204 10.625Z" fill="#FF4DBE"/>
<path d="M51.0363 2.10556C50.7563 1.61038 49.9255 0.731415 48.5906 0.669587C47.8475 0.635175 47.271 0.935315 46.8734 1.30341C45.2754 -0.231493 42.5922 -0.323818 40.814 1.65416C40.5629 1.9335 40.3601 2.22427 40.2 2.52236C39.0952 2.81317 37.4343 3.59795 36.3946 5.36775C35.3698 7.11201 35.3659 8.8201 35.7701 10.0966C35.432 10.5199 35.0911 11.0924 34.8883 11.7663C34.633 12.6148 34.5947 13.6347 35.0602 14.6865C34.8798 15.1281 34.7066 15.7025 34.6351 16.317C34.5414 17.1227 34.6092 18.1188 35.2111 18.9486C35.8647 19.8496 36.9929 20.6576 38.3049 20.9298C39.6592 21.2108 41.1846 20.9127 42.5125 19.6304L42.5952 19.5508L50.9722 5.02294L49.5585 4.20779L41.3016 18.5275C40.402 19.3549 39.4627 19.5036 38.6367 19.3323C37.7448 19.1472 36.9605 18.5814 36.5318 17.9905C36.2681 17.627 36.1856 17.1082 36.2557 16.5054C36.3227 15.9299 36.519 15.389 36.675 15.0724C36.797 14.8797 37.0402 14.5686 37.3631 14.3014C37.7039 14.0195 38.0614 13.8432 38.3976 13.8192L38.282 12.1911C37.4851 12.2478 36.8169 12.6393 36.3337 13.0368C36.3309 12.7557 36.3754 12.4874 36.451 12.2362C36.6307 11.6393 36.9792 11.1565 37.2362 10.8986C37.5259 10.6912 38.022 10.4207 38.5685 10.2879C39.1395 10.1492 39.6634 10.1806 40.0841 10.4503L40.9646 9.07647C40.0362 8.48141 39.0063 8.50241 38.1833 8.70231C37.8301 8.78812 37.4969 8.91243 37.1971 9.04976C37.0736 8.24671 37.1824 7.2484 37.8016 6.1945C38.3202 5.3117 39.0624 4.75925 39.7385 4.42915C39.7488 4.98946 39.8734 5.51756 40.0497 5.98236C40.3751 6.8404 40.8929 7.54295 41.2948 7.96522L42.4764 6.84004C42.1937 6.54309 41.8094 6.02075 41.5754 5.40369C41.3438 4.7929 41.2798 4.14953 41.5247 3.53412C41.6253 3.28127 41.7843 3.01544 42.0277 2.74471C43.3735 1.24791 45.399 1.63263 46.2029 3.0801C46.5205 3.65212 46.708 4.47363 46.5979 5.57129L48.2215 5.73409C48.3388 4.56485 48.1936 3.53609 47.8253 2.68596C47.8672 2.62512 47.9166 2.56171 47.9765 2.50533C48.1172 2.37312 48.2852 2.2894 48.5151 2.30004C49.1436 2.32915 49.5318 2.76044 49.6157 2.90895L51.0363 2.10556ZM40.9791 13.2562C41.0292 14.0867 40.6193 15.8837 38.6064 16.465L39.0592 18.0329C42.0854 17.1589 42.684 14.4157 42.6081 13.158L40.9791 13.2562ZM43.9345 5.6742C44.2784 5.89802 44.7134 6.37437 44.9361 6.98832C45.1475 7.57111 45.1684 8.27287 44.7251 9.03879L46.1375 9.85615C46.8462 8.6318 46.8291 7.42186 46.4702 6.43214C46.1225 5.47373 45.4555 4.7164 44.8243 4.30579L43.9345 5.6742Z" fill="#FF4DBE"/>
</svg>
