<svg width="111" height="21" viewBox="0 0 111 21" fill="none" xmlns="http://www.w3.org/2000/svg">
<path d="M8.47962 17.6492C6.85384 17.6492 5.49903 17.4105 4.41517 16.933C3.33132 16.4385 2.51843 15.7564 1.9765 14.8867C1.43457 14 1.16361 12.9598 1.16361 11.7661V11.4336H5.86313V11.6382C5.86313 12.0987 5.93934 12.4568 6.09176 12.7125C6.24418 12.9513 6.51514 13.1133 6.90465 13.1985C7.3111 13.2838 7.89536 13.3264 8.65744 13.3264C9.55501 13.3264 10.1393 13.2497 10.4102 13.0962C10.6981 12.9428 10.8421 12.6784 10.8421 12.3033C10.8421 12.0304 10.7998 11.8173 10.7151 11.6638C10.6473 11.5104 10.5119 11.391 10.3086 11.3057C10.1054 11.2034 9.80904 11.1267 9.41953 11.0755L5.71072 10.4872C4.55912 10.2996 3.61922 9.98417 2.891 9.5408C2.17972 9.08039 1.65473 8.50913 1.31603 7.82704C0.994259 7.12789 0.833374 6.33496 0.833374 5.44823C0.833374 4.42509 1.09587 3.50426 1.62086 2.68575C2.14585 1.86723 2.95028 1.21924 4.03413 0.741778C5.11798 0.247259 6.48974 0 8.14939 0C9.7413 0 11.0538 0.247259 12.0868 0.741778C13.1199 1.21924 13.8904 1.88429 14.3985 2.73691C14.9065 3.57247 15.1606 4.5274 15.1606 5.6017V6.03654H10.461V5.7296C10.461 5.38855 10.3848 5.11571 10.2324 4.91108C10.0969 4.70646 9.84291 4.56151 9.47034 4.47625C9.09776 4.37393 8.55583 4.32278 7.84455 4.32278C6.94699 4.32278 6.34579 4.39951 6.04095 4.55298C5.73612 4.70645 5.5837 4.94519 5.5837 5.26918C5.5837 5.43971 5.62604 5.58465 5.71072 5.70402C5.79539 5.82339 5.93087 5.9257 6.11716 6.01096C6.32038 6.07917 6.58288 6.14738 6.90465 6.21559L10.6135 6.88063C11.8159 7.08526 12.7812 7.43484 13.5094 7.92935C14.2545 8.40682 14.788 8.99513 15.1098 9.69427C15.4485 10.3934 15.6178 11.1864 15.6178 12.0731C15.6178 13.0621 15.3723 13.9829 14.8811 14.8356C14.407 15.6882 13.6449 16.3703 12.5949 16.8819C11.5618 17.3934 10.1901 17.6492 8.47962 17.6492Z" fill="white"/>
<path d="M24.8964 17.6492C23.0674 17.6492 21.5178 17.2911 20.2477 16.5749C18.9945 15.8417 18.0461 14.8185 17.4026 13.5055C16.759 12.1754 16.4373 10.6151 16.4373 8.8246C16.4373 7.0341 16.759 5.48234 17.4026 4.16931C18.0461 2.83922 18.9945 1.81608 20.2477 1.09988C21.5178 0.366626 23.0674 0 24.8964 0C26.6915 0 28.1818 0.28989 29.3673 0.869671C30.5528 1.44945 31.4334 2.25091 32.0092 3.27406C32.6019 4.2972 32.8983 5.47381 32.8983 6.8039V7.3922H27.7923V7.31547C27.7923 6.32643 27.5891 5.64434 27.1827 5.26918C26.7762 4.87698 25.9803 4.68088 24.7948 4.68088C23.9819 4.68088 23.3384 4.78319 22.8642 4.98782C22.4069 5.1754 22.0767 5.5676 21.8735 6.16443C21.6702 6.74421 21.5686 7.63094 21.5686 8.8246C21.5686 10.0012 21.6702 10.8879 21.8735 11.4848C22.0767 12.0816 22.4069 12.4823 22.8642 12.687C23.3384 12.8745 23.9819 12.9683 24.7948 12.9683C25.9803 12.9683 26.7762 12.7808 27.1827 12.4056C27.5891 12.0134 27.7923 11.3228 27.7923 10.3337V10.257H32.8983V10.8453C32.8983 12.1754 32.6019 13.352 32.0092 14.3752C31.4334 15.3983 30.5528 16.1998 29.3673 16.7795C28.1818 17.3593 26.6915 17.6492 24.8964 17.6492Z" fill="white"/>
<path d="M42.4873 17.6492C40.6921 17.6492 39.151 17.2911 37.8639 16.5749C36.5938 15.8417 35.62 14.8185 34.9426 13.5055C34.2652 12.1754 33.9265 10.6151 33.9265 8.8246C33.9265 7.0341 34.2652 5.48234 34.9426 4.16931C35.62 2.83922 36.5938 1.81608 37.8639 1.09988C39.151 0.366626 40.6921 0 42.4873 0C44.2824 0 45.815 0.366626 47.0852 1.09988C48.3553 1.81608 49.3291 2.83922 50.0065 4.16931C50.6839 5.48234 51.0226 7.0341 51.0226 8.8246C51.0226 10.6151 50.6839 12.1754 50.0065 13.5055C49.3291 14.8185 48.3553 15.8417 47.0852 16.5749C45.815 17.2911 44.2824 17.6492 42.4873 17.6492ZM42.4873 12.9683C43.3679 12.9683 44.0538 12.8575 44.5449 12.6358C45.036 12.3971 45.3832 11.9793 45.5864 11.3825C45.7896 10.7686 45.8912 9.91596 45.8912 8.8246C45.8912 7.7162 45.7896 6.86358 45.5864 6.26675C45.3832 5.66991 45.036 5.26066 44.5449 5.03898C44.0538 4.80024 43.3679 4.68088 42.4873 4.68088C41.6066 4.68088 40.9123 4.80024 40.4042 5.03898C39.9131 5.26066 39.5659 5.66991 39.3627 6.26675C39.1595 6.86358 39.0579 7.7162 39.0579 8.8246C39.0579 9.91596 39.1595 10.7686 39.3627 11.3825C39.5659 11.9793 39.9131 12.3971 40.4042 12.6358C40.9123 12.8575 41.6066 12.9683 42.4873 12.9683Z" fill="white"/>
<path d="M56.9943 17.3934H52.2185V0.255785H60.7793C62.2188 0.255785 63.4042 0.460414 64.3357 0.869671C65.2671 1.26188 65.9615 1.85018 66.4187 2.63459C66.876 3.419 67.1046 4.38246 67.1046 5.52497C67.1046 6.42874 66.9776 7.21315 66.7235 7.8782C66.4695 8.54324 66.0546 9.08039 65.4788 9.48965C64.9199 9.88185 64.1579 10.1376 63.1926 10.257V10.4872C64.0562 10.7089 64.6998 11.084 65.1232 11.6127C65.5635 12.1413 65.9445 12.7722 66.2663 13.5055L68.0445 17.3934H62.4813L60.8047 13.838C60.5676 13.3435 60.3474 12.9598 60.1442 12.687C59.9579 12.3971 59.7124 12.201 59.4075 12.0987C59.1196 11.9793 58.7047 11.9196 58.1628 11.9196H56.9943V17.3934ZM56.9943 4.57856V7.92935H60.6015C61.2789 7.92935 61.7361 7.80999 61.9732 7.57125C62.2103 7.33252 62.3289 6.87211 62.3289 6.19001C62.3289 5.55907 62.2103 5.13276 61.9732 4.91108C61.7361 4.6894 61.2789 4.57856 60.6015 4.57856H56.9943Z" fill="white"/>
<path d="M73.3672 17.3934H68.5914V0.255785H73.3672V17.3934ZM82.3344 17.3934H69.887V13.0706H82.3344V17.3934ZM81.9533 10.9476H69.887V6.65043H81.9533V10.9476ZM82.3344 4.57856H69.887V0.255785H82.3344V4.57856Z" fill="white"/>
<path d="M92.4937 17.3934H87.718V0.255785H92.4937V17.3934Z" fill="white"/>
<path d="M109.944 21H103.67L99.5037 13.7868H104.508L109.944 21ZM102.298 17.6492C100.503 17.6492 98.9618 17.2911 97.6747 16.5749C96.4046 15.8417 95.4308 14.8185 94.7534 13.5055C94.076 12.1754 93.7373 10.6151 93.7373 8.8246C93.7373 7.0341 94.076 5.48234 94.7534 4.16931C95.4308 2.83922 96.4046 1.81608 97.6747 1.09988C98.9618 0.366626 100.503 0 102.298 0C104.093 0 105.626 0.366626 106.896 1.09988C108.166 1.81608 109.14 2.83922 109.817 4.16931C110.495 5.48234 110.833 7.0341 110.833 8.8246C110.833 10.6151 110.495 12.1754 109.817 13.5055C109.14 14.8185 108.166 15.8417 106.896 16.5749C105.626 17.2911 104.093 17.6492 102.298 17.6492ZM102.298 12.9683C103.179 12.9683 103.865 12.8575 104.356 12.6358C104.847 12.3971 105.194 11.9793 105.397 11.3825C105.6 10.7686 105.702 9.91596 105.702 8.8246C105.702 7.7162 105.6 6.86358 105.397 6.26675C105.194 5.66991 104.847 5.26066 104.356 5.03898C103.865 4.80024 103.179 4.68088 102.298 4.68088C101.417 4.68088 100.723 4.80024 100.215 5.03898C99.7239 5.26066 99.3767 5.66991 99.1735 6.26675C98.9703 6.86358 98.8686 7.7162 98.8686 8.8246C98.8686 9.91596 98.9703 10.7686 99.1735 11.3825C99.3767 11.9793 99.7239 12.3971 100.215 12.6358C100.723 12.8575 101.417 12.9683 102.298 12.9683Z" fill="white"/>
</svg>
